<svg xmlns="http://www.w3.org/2000/svg" viewBox="1080 1290.019 1450 1100">
  <path d="M 1387.491 1416.357 c -8.247 -33.291 -35.133 -58.005 -70.491 -56.58 c -51.594 2.082 -62.094 57.09 -62.874 99.33 c -1.281 68.271 7.938 136.485 13.569 204.408 c 7.803 94.287 16.017 188.526 23.844 282.789 c -14.322 12.264 -27.606 24.714 -39.909 37.182 c -100.494 101.847 -136.185 206.331 -144.387 234.342 c -1.14 3.891 1.311 7.896 5.295 8.637 c 23.436 4.347 101.364 18.336 203.229 31.674 c 34.074 4.461 70.821 8.862 109.122 12.804 c 0 0 -25.482 -640.932 -25.992 -699.057 C 1398.45 1520.013 1400.025 1467.09 1387.491 1416.357 M 2492.547 1843.062 c -80.898 -126.609 -280.377 -225.201 -314.343 -241.338 c -2.97 -1.41 -6.459 -1.095 -9.102 0.867 c -31.05 23.091 -94.143 46.251 -118.497 54.711 c -99.981 -72.633 -187.278 -124.371 -212.172 -138.792 c -3.63 -2.103 -8.262 -0.468 -9.759 3.45 c -11.169 29.217 -60.54 138.564 -205.308 240.144 c 7.74 -60.864 15.663 -121.698 24.06 -182.502 c 8.055 -58.293 19.851 -121.899 21 -175.392 c 0.441 -20.811 -4.773 -41.271 -12.015 -60.951 c -13.536 -36.711 -77.244 -44.196 -99.798 -12.24 c -39.807 56.403 -35.172 134.904 -40.2 200.415 c -7.8 101.592 -50.55 697.089 -54.021 744.702 c 32.865 3.207 66.684 6.036 100.77 8.211 c 221.991 14.373 451.131 0.612 507.285 -99.537 c 87.264 -155.628 -37.164 -320.109 -126.291 -473.58 c 0 -0.003 0 -0.003 -0.003 -0.006 c 323.076 156.369 434.754 303.675 468.651 373.356 c 2.364 4.854 9.696 2.262 8.547 -3.012 c -24.576 -112.989 -133.602 -231.681 -251.37 -331.107 c 111.249 0.36 281.091 79.662 318.798 96.969 C 2491.503 1848.684 2494.164 1845.588 2492.547 1843.062" fill="#FFFFFF"/>
</svg>