<?xml version="1.0" encoding="utf-8"?>
<!-- Generator: Adobe Illustrator 16.0.0, SVG Export Plug-In . SVG Version: 6.00 Build 0)  -->
<!DOCTYPE svg PUBLIC "-//W3C//DTD SVG 1.1//EN" "http://www.w3.org/Graphics/SVG/1.1/DTD/svg11.dtd">
<svg version="1.1" id="Layer_1" xmlns="http://www.w3.org/2000/svg" xmlns:xlink="http://www.w3.org/1999/xlink" x="0px" y="0px"
	 width="1200px" height="1200px" viewBox="0 0 1200 1200" enable-background="new 0 0 1200 1200" xml:space="preserve">
<g>
	<defs>
		<rect id="SVGID_1_" width="1200" height="1200"/>
	</defs>
	<clipPath id="SVGID_2_">
		<use xlink:href="#SVGID_1_"  overflow="visible"/>
	</clipPath>
	<path clip-path="url(#SVGID_2_)" fill="#FFFFFF" d="M462.497,472.119c-2.749-11.097-11.711-19.335-23.497-18.86
		c-17.198,0.694-20.698,19.03-20.958,33.11c-0.427,22.757,2.646,45.495,4.523,68.136c2.601,31.429,5.339,62.842,7.948,94.263
		c-4.774,4.088-9.202,8.238-13.303,12.394c-33.498,33.949-45.395,68.777-48.129,78.114c-0.38,1.297,0.437,2.632,1.765,2.879
		c7.812,1.449,33.788,6.112,67.743,10.558c11.358,1.487,23.607,2.954,36.374,4.268c0,0-8.494-213.644-8.664-233.019
		C466.15,506.671,466.675,489.03,462.497,472.119"/>
	<path clip-path="url(#SVGID_2_)" fill="#FFFFFF" d="M830.849,614.354c-26.966-42.203-93.459-75.067-104.781-80.446
		c-0.99-0.47-2.153-0.365-3.034,0.289c-10.35,7.697-31.381,15.417-39.499,18.237c-33.327-24.211-62.426-41.457-70.724-46.264
		c-1.21-0.701-2.754-0.156-3.253,1.15c-3.723,9.739-20.18,46.188-68.436,80.048c2.58-20.288,5.221-40.566,8.02-60.834
		c2.685-19.431,6.617-40.633,7-58.464c0.147-6.937-1.591-13.757-4.005-20.317c-4.512-12.237-25.748-14.732-33.266-4.08
		c-13.269,18.801-11.724,44.968-13.4,66.805c-2.6,33.864-16.85,232.363-18.007,248.234c10.955,1.069,22.228,2.012,33.59,2.737
		c73.997,4.791,150.377,0.204,169.095-33.179c29.088-51.876-12.388-106.703-42.097-157.86c0-0.001,0-0.001-0.001-0.002
		c107.692,52.123,144.918,101.225,156.217,124.452c0.788,1.618,3.232,0.754,2.849-1.004c-8.192-37.663-44.534-77.227-83.79-110.369
		c37.083,0.12,93.697,26.554,106.266,32.323C830.501,616.228,831.388,615.196,830.849,614.354"/>
</g>
</svg>
